# Blender 5.0.1
# www.blender.org
mtllib tornado.mtl
o tornado
v 0.000000 0.074648 -1.141328
v 0.000000 11.152222 -3.297157
v 0.295397 0.074648 -1.102438
v 0.853367 11.152222 -3.184810
v 0.570664 0.074648 -0.988419
v 1.648579 11.152222 -2.855422
v 0.807041 0.074648 -0.807041
v 2.331442 11.152222 -2.331442
v 0.988419 0.074648 -0.570664
v 2.855422 11.152222 -1.648579
v 1.102438 0.074648 -0.295397
v 3.184810 11.152222 -0.853367
v 1.141328 0.074648 -0.000000
v 3.297157 11.152222 -0.000000
v 1.102438 0.074648 0.295397
v 3.184810 11.152222 0.853367
v 0.988419 0.074648 0.570664
v 2.855422 11.152222 1.648579
v 0.807041 0.074648 0.807041
v 2.331442 11.152222 2.331442
v 0.570664 0.074648 0.988419
v 1.648579 11.152222 2.855422
v 0.295397 0.074648 1.102438
v 0.853367 11.152222 3.184810
v 0.000000 0.074648 1.141328
v 0.000000 11.152222 3.297157
v -0.295397 0.074648 1.102438
v -0.853367 11.152222 3.184810
v -0.570664 0.074648 0.988419
v -1.648578 11.152222 2.855422
v -0.807041 0.074648 0.807041
v -2.331442 11.152222 2.331442
v -0.988419 0.074648 0.570664
v -2.855422 11.152222 1.648579
v -1.102438 0.074648 0.295397
v -3.184810 11.152222 0.853367
v -1.141328 0.074648 -0.000000
v -3.297157 11.152222 -0.000000
v -1.102438 0.074648 -0.295397
v -3.184810 11.152222 -0.853367
v -0.988419 0.074648 -0.570664
v -2.855422 11.152222 -1.648579
v -0.807041 0.074648 -0.807041
v -2.331442 11.152222 -2.331442
v -0.570664 0.074648 -0.988419
v -1.648578 11.152222 -2.855422
v -0.295397 0.074648 -1.102438
v -0.853367 11.152222 -3.184810
v -0.000000 0.536214 -1.086296
v -0.000000 0.997780 -1.172592
v -0.000000 1.459345 -1.258888
v -0.000000 1.920911 -1.345183
v -0.000000 2.382476 -1.431479
v -0.000000 2.844042 -1.517775
v -0.000000 3.305607 -1.604071
v -0.000000 3.767173 -1.690367
v -0.000000 4.228738 -1.776662
v -0.000000 4.690304 -1.862958
v -0.000000 5.151869 -1.949254
v -0.000000 5.613435 -2.035550
v -0.000000 6.075000 -2.121845
v -0.000000 6.536566 -2.208141
v -0.000000 6.998131 -2.294437
v -0.000000 7.459697 -2.380733
v -0.000000 7.921262 -2.467029
v -0.000000 8.382828 -2.553325
v -0.000000 8.844394 -2.639620
v -0.000000 9.305960 -2.725916
v -0.000000 9.767525 -2.812212
v -0.000000 10.229091 -2.898508
v -0.000000 10.690657 -2.984803
v 0.772524 10.690656 -2.883099
v 0.750189 10.229090 -2.799743
v 0.727854 9.767524 -2.716388
v 0.705519 9.305958 -2.633032
v 0.683184 8.844393 -2.549677
v 0.660849 8.382827 -2.466321
v 0.638514 7.921261 -2.382966
v 0.616179 7.459696 -2.299611
v 0.593844 6.998130 -2.216255
v 0.571509 6.536565 -2.132900
v 0.549174 6.074999 -2.049545
v 0.526839 5.613434 -1.966190
v 0.504504 5.151868 -1.882834
v 0.482169 4.690303 -1.799479
v 0.459834 4.228737 -1.716124
v 0.437499 3.767172 -1.632768
v 0.415164 3.305606 -1.549413
v 0.392829 2.844041 -1.466058
v 0.370494 2.382475 -1.382702
v 0.348159 1.920910 -1.299347
v 0.325824 1.459345 -1.215992
v 0.303489 0.997779 -1.132636
v 0.281154 0.536214 -1.049281
v 1.492402 10.690656 -2.584915
v 1.449254 10.229090 -2.510181
v 1.406106 9.767524 -2.435447
v 1.362958 9.305958 -2.360712
v 1.319810 8.844393 -2.285978
v 1.276662 8.382827 -2.211243
v 1.233514 7.921261 -2.136509
v 1.190366 7.459696 -2.061775
v 1.147218 6.998130 -1.987040
v 1.104070 6.536565 -1.912306
v 1.060922 6.074999 -1.837572
v 1.017774 5.613434 -1.762837
v 0.974627 5.151868 -1.688103
v 0.931479 4.690303 -1.613369
v 0.888331 4.228737 -1.538634
v 0.845183 3.767172 -1.463900
v 0.802035 3.305606 -1.389166
v 0.758887 2.844041 -1.314431
v 0.715739 2.382475 -1.239697
v 0.672592 1.920910 -1.164963
v 0.629444 1.459345 -1.090228
v 0.586296 0.997779 -1.015494
v 0.543148 0.536214 -0.940760
v 2.110574 10.690656 -2.110574
v 2.049554 10.229090 -2.049554
v 1.988534 9.767524 -1.988534
v 1.927513 9.305958 -1.927513
v 1.866493 8.844393 -1.866493
v 1.805473 8.382827 -1.805473
v 1.744452 7.921261 -1.744452
v 1.683432 7.459696 -1.683432
v 1.622411 6.998130 -1.622411
v 1.561391 6.536565 -1.561391
v 1.500371 6.074999 -1.500371
v 1.439350 5.613434 -1.439350
v 1.378330 5.151868 -1.378330
v 1.317310 4.690303 -1.317310
v 1.256290 4.228737 -1.256290
v 1.195269 3.767172 -1.195269
v 1.134249 3.305606 -1.134249
v 1.073229 2.844041 -1.073229
v 1.012208 2.382475 -1.012208
v 0.951188 1.920910 -0.951188
v 0.890168 1.459345 -0.890168
v 0.829147 0.997779 -0.829147
v 0.768127 0.536214 -0.768127
v 2.584915 10.690656 -1.492402
v 2.510181 10.229090 -1.449254
v 2.435447 9.767524 -1.406106
v 2.360712 9.305958 -1.362958
v 2.285978 8.844393 -1.319810
v 2.211243 8.382827 -1.276662
v 2.136509 7.921261 -1.233514
v 2.061775 7.459696 -1.190366
v 1.987040 6.998130 -1.147218
v 1.912306 6.536565 -1.104070
v 1.837572 6.074999 -1.060922
v 1.762837 5.613434 -1.017774
v 1.688103 5.151868 -0.974627
v 1.613369 4.690303 -0.931479
v 1.538634 4.228737 -0.888331
v 1.463900 3.767172 -0.845183
v 1.389166 3.305606 -0.802035
v 1.314431 2.844041 -0.758887
v 1.239697 2.382475 -0.715739
v 1.164963 1.920910 -0.672592
v 1.090228 1.459345 -0.629444
v 1.015494 0.997779 -0.586296
v 0.940760 0.536214 -0.543148
v 2.883099 10.690656 -0.772524
v 2.799743 10.229090 -0.750189
v 2.716388 9.767524 -0.727854
v 2.633032 9.305958 -0.705519
v 2.549677 8.844393 -0.683184
v 2.466321 8.382827 -0.660849
v 2.382966 7.921261 -0.638514
v 2.299611 7.459696 -0.616179
v 2.216255 6.998130 -0.593844
v 2.132900 6.536565 -0.571509
v 2.049545 6.074999 -0.549174
v 1.966190 5.613434 -0.526839
v 1.882834 5.151868 -0.504504
v 1.799479 4.690303 -0.482169
v 1.716124 4.228737 -0.459834
v 1.632768 3.767172 -0.437499
v 1.549413 3.305606 -0.415164
v 1.466058 2.844041 -0.392829
v 1.382702 2.382475 -0.370494
v 1.299347 1.920910 -0.348159
v 1.215992 1.459345 -0.325824
v 1.132636 0.997779 -0.303489
v 1.049281 0.536214 -0.281154
v 2.984803 10.690656 -0.000000
v 2.898507 10.229090 -0.000000
v 2.812212 9.767524 -0.000000
v 2.725916 9.305958 -0.000000
v 2.639620 8.844393 -0.000000
v 2.553324 8.382827 -0.000000
v 2.467028 7.921261 -0.000000
v 2.380732 7.459696 -0.000000
v 2.294436 6.998130 -0.000000
v 2.208141 6.536565 -0.000000
v 2.121845 6.074999 -0.000000
v 2.035549 5.613434 -0.000000
v 1.949253 5.151868 -0.000000
v 1.862957 4.690303 -0.000000
v 1.776662 4.228737 -0.000000
v 1.690366 3.767172 -0.000000
v 1.604070 3.305606 -0.000000
v 1.517775 2.844041 -0.000000
v 1.431479 2.382475 -0.000000
v 1.345183 1.920910 -0.000000
v 1.258887 1.459345 -0.000000
v 1.172592 0.997779 -0.000000
v 1.086296 0.536214 -0.000000
v 2.883099 10.690656 0.772524
v 2.799743 10.229090 0.750189
v 2.716388 9.767524 0.727854
v 2.633032 9.305958 0.705519
v 2.549677 8.844393 0.683184
v 2.466321 8.382827 0.660849
v 2.382966 7.921261 0.638514
v 2.299611 7.459696 0.616179
v 2.216255 6.998130 0.593844
v 2.132900 6.536565 0.571509
v 2.049545 6.074999 0.549174
v 1.966190 5.613434 0.526839
v 1.882834 5.151868 0.504504
v 1.799479 4.690303 0.482169
v 1.716124 4.228737 0.459834
v 1.632768 3.767172 0.437499
v 1.549413 3.305606 0.415164
v 1.466058 2.844041 0.392829
v 1.382702 2.382475 0.370494
v 1.299347 1.920910 0.348159
v 1.215992 1.459345 0.325824
v 1.132636 0.997779 0.303489
v 1.049281 0.536214 0.281154
v 2.584915 10.690656 1.492401
v 2.510181 10.229090 1.449254
v 2.435447 9.767524 1.406106
v 2.360712 9.305958 1.362958
v 2.285978 8.844393 1.319810
v 2.211243 8.382827 1.276662
v 2.136509 7.921261 1.233514
v 2.061775 7.459696 1.190366
v 1.987040 6.998130 1.147218
v 1.912306 6.536565 1.104070
v 1.837572 6.074999 1.060922
v 1.762837 5.613434 1.017774
v 1.688103 5.151868 0.974626
v 1.613369 4.690303 0.931479
v 1.538634 4.228737 0.888331
v 1.463900 3.767172 0.845183
v 1.389166 3.305606 0.802035
v 1.314431 2.844041 0.758887
v 1.239697 2.382475 0.715739
v 1.164963 1.920910 0.672591
v 1.090228 1.459345 0.629444
v 1.015494 0.997779 0.586296
v 0.940760 0.536214 0.543148
v 2.110574 10.690656 2.110574
v 2.049554 10.229090 2.049554
v 1.988534 9.767524 1.988534
v 1.927513 9.305958 1.927513
v 1.866493 8.844393 1.866493
v 1.805473 8.382827 1.805473
v 1.744452 7.921261 1.744452
v 1.683432 7.459696 1.683432
v 1.622411 6.998130 1.622411
v 1.561391 6.536565 1.561391
v 1.500371 6.074999 1.500371
v 1.439350 5.613434 1.439350
v 1.378330 5.151868 1.378330
v 1.317310 4.690303 1.317310
v 1.256290 4.228737 1.256290
v 1.195269 3.767172 1.195269
v 1.134249 3.305606 1.134249
v 1.073229 2.844041 1.073229
v 1.012208 2.382475 1.012208
v 0.951188 1.920910 0.951188
v 0.890168 1.459345 0.890168
v 0.829147 0.997779 0.829147
v 0.768127 0.536214 0.768127
v 1.492402 10.690656 2.584915
v 1.449254 10.229090 2.510181
v 1.406106 9.767524 2.435447
v 1.362958 9.305958 2.360712
v 1.319810 8.844393 2.285978
v 1.276662 8.382827 2.211243
v 1.233514 7.921261 2.136509
v 1.190366 7.459696 2.061775
v 1.147218 6.998130 1.987040
v 1.104070 6.536565 1.912306
v 1.060922 6.074999 1.837572
v 1.017774 5.613434 1.762837
v 0.974627 5.151868 1.688103
v 0.931479 4.690303 1.613369
v 0.888331 4.228737 1.538634
v 0.845183 3.767172 1.463900
v 0.802035 3.305606 1.389166
v 0.758887 2.844041 1.314431
v 0.715739 2.382475 1.239697
v 0.672592 1.920910 1.164963
v 0.629444 1.459345 1.090228
v 0.586296 0.997779 1.015494
v 0.543148 0.536214 0.940760
v 0.772524 10.690656 2.883099
v 0.750189 10.229090 2.799743
v 0.727854 9.767524 2.716388
v 0.705519 9.305958 2.633032
v 0.683184 8.844393 2.549677
v 0.660849 8.382827 2.466321
v 0.638514 7.921261 2.382966
v 0.616179 7.459696 2.299611
v 0.593844 6.998130 2.216255
v 0.571509 6.536565 2.132900
v 0.549174 6.074999 2.049545
v 0.526839 5.613434 1.966190
v 0.504504 5.151868 1.882834
v 0.482169 4.690303 1.799479
v 0.459834 4.228737 1.716124
v 0.437499 3.767172 1.632768
v 0.415164 3.305606 1.549413
v 0.392829 2.844041 1.466058
v 0.370494 2.382475 1.382702
v 0.348159 1.920910 1.299347
v 0.325824 1.459345 1.215992
v 0.303489 0.997779 1.132636
v 0.281154 0.536214 1.049281
v -0.000000 10.690656 2.984803
v -0.000000 10.229090 2.898507
v -0.000000 9.767524 2.812212
v -0.000000 9.305958 2.725916
v -0.000000 8.844393 2.639620
v -0.000000 8.382827 2.553324
v -0.000000 7.921261 2.467028
v -0.000000 7.459696 2.380732
v -0.000000 6.998130 2.294436
v -0.000000 6.536565 2.208141
v -0.000000 6.074999 2.121845
v -0.000000 5.613434 2.035549
v -0.000000 5.151868 1.949253
v -0.000000 4.690303 1.862957
v -0.000000 4.228737 1.776662
v -0.000000 3.767172 1.690366
v -0.000000 3.305606 1.604070
v -0.000000 2.844041 1.517775
v -0.000000 2.382475 1.431479
v -0.000000 1.920910 1.345183
v -0.000000 1.459345 1.258887
v -0.000000 0.997779 1.172592
v -0.000000 0.536214 1.086296
v -0.772524 10.690656 2.883099
v -0.750189 10.229090 2.799743
v -0.727854 9.767524 2.716388
v -0.705519 9.305958 2.633032
v -0.683184 8.844393 2.549677
v -0.660849 8.382827 2.466321
v -0.638514 7.921261 2.382966
v -0.616179 7.459696 2.299611
v -0.593844 6.998130 2.216255
v -0.571509 6.536565 2.132900
v -0.549174 6.074999 2.049545
v -0.526839 5.613434 1.966190
v -0.504504 5.151868 1.882834
v -0.482169 4.690303 1.799479
v -0.459834 4.228737 1.716124
v -0.437499 3.767172 1.632768
v -0.415164 3.305606 1.549413
v -0.392829 2.844041 1.466058
v -0.370494 2.382475 1.382702
v -0.348159 1.920910 1.299347
v -0.325824 1.459345 1.215992
v -0.303489 0.997779 1.132636
v -0.281154 0.536214 1.049281
v -1.492402 10.690656 2.584915
v -1.449254 10.229090 2.510181
v -1.406106 9.767524 2.435447
v -1.362958 9.305958 2.360712
v -1.319810 8.844393 2.285978
v -1.276662 8.382827 2.211243
v -1.233514 7.921261 2.136509
v -1.190366 7.459696 2.061775
v -1.147218 6.998130 1.987040
v -1.104070 6.536565 1.912306
v -1.060922 6.074999 1.837572
v -1.017774 5.613434 1.762837
v -0.974627 5.151868 1.688103
v -0.931479 4.690303 1.613369
v -0.888331 4.228737 1.538634
v -0.845183 3.767172 1.463900
v -0.802035 3.305606 1.389166
v -0.758887 2.844041 1.314431
v -0.715739 2.382475 1.239697
v -0.672592 1.920910 1.164963
v -0.629444 1.459345 1.090228
v -0.586296 0.997779 1.015494
v -0.543148 0.536214 0.940760
v -2.110574 10.690656 2.110574
v -2.049554 10.229090 2.049554
v -1.988534 9.767524 1.988534
v -1.927513 9.305958 1.927513
v -1.866493 8.844393 1.866493
v -1.805473 8.382827 1.805473
v -1.744452 7.921261 1.744452
v -1.683432 7.459696 1.683432
v -1.622411 6.998130 1.622411
v -1.561391 6.536565 1.561391
v -1.500371 6.074999 1.500371
v -1.439350 5.613434 1.439350
v -1.378330 5.151868 1.378330
v -1.317310 4.690303 1.317310
v -1.256290 4.228737 1.256290
v -1.195269 3.767172 1.195269
v -1.134249 3.305606 1.134249
v -1.073229 2.844041 1.073229
v -1.012208 2.382475 1.012208
v -0.951188 1.920910 0.951188
v -0.890168 1.459345 0.890168
v -0.829147 0.997779 0.829147
v -0.768127 0.536214 0.768127
v -2.584915 10.690656 1.492401
v -2.510181 10.229090 1.449254
v -2.435447 9.767524 1.406106
v -2.360712 9.305958 1.362958
v -2.285978 8.844393 1.319810
v -2.211243 8.382827 1.276662
v -2.136509 7.921261 1.233514
v -2.061775 7.459696 1.190366
v -1.987040 6.998130 1.147218
v -1.912306 6.536565 1.104070
v -1.837572 6.074999 1.060922
v -1.762837 5.613434 1.017774
v -1.688103 5.151868 0.974626
v -1.613369 4.690303 0.931479
v -1.538634 4.228737 0.888331
v -1.463900 3.767172 0.845183
v -1.389166 3.305606 0.802035
v -1.314431 2.844041 0.758887
v -1.239697 2.382475 0.715739
v -1.164963 1.920910 0.672591
v -1.090228 1.459345 0.629444
v -1.015494 0.997779 0.586296
v -0.940760 0.536214 0.543148
v -2.883099 10.690656 0.772524
v -2.799743 10.229090 0.750189
v -2.716388 9.767524 0.727854
v -2.633032 9.305958 0.705519
v -2.549677 8.844393 0.683184
v -2.466321 8.382827 0.660849
v -2.382966 7.921261 0.638514
v -2.299611 7.459696 0.616179
v -2.216255 6.998130 0.593844
v -2.132900 6.536565 0.571509
v -2.049545 6.074999 0.549174
v -1.966190 5.613434 0.526839
v -1.882834 5.151868 0.504504
v -1.799479 4.690303 0.482169
v -1.716124 4.228737 0.459834
v -1.632768 3.767172 0.437499
v -1.549413 3.305606 0.415164
v -1.466058 2.844041 0.392829
v -1.382702 2.382475 0.370494
v -1.299347 1.920910 0.348159
v -1.215992 1.459345 0.325824
v -1.132636 0.997779 0.303489
v -1.049281 0.536214 0.281154
v -2.984803 10.690656 -0.000000
v -2.898507 10.229090 -0.000000
v -2.812212 9.767524 -0.000000
v -2.725916 9.305958 -0.000000
v -2.639620 8.844393 -0.000000
v -2.553324 8.382827 -0.000000
v -2.467028 7.921261 -0.000000
v -2.380732 7.459696 -0.000000
v -2.294436 6.998130 -0.000000
v -2.208141 6.536565 -0.000000
v -2.121845 6.074999 -0.000000
v -2.035549 5.613434 -0.000000
v -1.949253 5.151868 -0.000000
v -1.862957 4.690303 -0.000000
v -1.776662 4.228737 -0.000000
v -1.690366 3.767172 -0.000000
v -1.604070 3.305606 -0.000000
v -1.517775 2.844041 -0.000000
v -1.431479 2.382475 -0.000000
v -1.345183 1.920910 -0.000000
v -1.258887 1.459345 -0.000000
v -1.172592 0.997779 -0.000000
v -1.086296 0.536214 -0.000000
v -2.883099 10.690656 -0.772524
v -2.799743 10.229090 -0.750189
v -2.716388 9.767524 -0.727854
v -2.633032 9.305958 -0.705519
v -2.549677 8.844393 -0.683184
v -2.466321 8.382827 -0.660849
v -2.382966 7.921261 -0.638514
v -2.299611 7.459696 -0.616179
v -2.216255 6.998130 -0.593844
v -2.132900 6.536565 -0.571509
v -2.049545 6.074999 -0.549174
v -1.966190 5.613434 -0.526839
v -1.882834 5.151868 -0.504504
v -1.799479 4.690303 -0.482169
v -1.716124 4.228737 -0.459834
v -1.632768 3.767172 -0.437499
v -1.549413 3.305606 -0.415164
v -1.466058 2.844041 -0.392829
v -1.382702 2.382475 -0.370494
v -1.299347 1.920910 -0.348159
v -1.215992 1.459345 -0.325824
v -1.132636 0.997779 -0.303489
v -1.049281 0.536214 -0.281154
v -2.584915 10.690656 -1.492402
v -2.510181 10.229090 -1.449254
v -2.435447 9.767524 -1.406106
v -2.360712 9.305958 -1.362958
v -2.285978 8.844393 -1.319810
v -2.211243 8.382827 -1.276662
v -2.136509 7.921261 -1.233514
v -2.061775 7.459696 -1.190366
v -1.987040 6.998130 -1.147218
v -1.912306 6.536565 -1.104070
v -1.837572 6.074999 -1.060922
v -1.762837 5.613434 -1.017774
v -1.688103 5.151868 -0.974627
v -1.613369 4.690303 -0.931479
v -1.538634 4.228737 -0.888331
v -1.463900 3.767172 -0.845183
v -1.389166 3.305606 -0.802035
v -1.314431 2.844041 -0.758887
v -1.239697 2.382475 -0.715739
v -1.164963 1.920910 -0.672592
v -1.090228 1.459345 -0.629444
v -1.015494 0.997779 -0.586296
v -0.940760 0.536214 -0.543148
v -2.110574 10.690656 -2.110574
v -2.049554 10.229090 -2.049554
v -1.988534 9.767524 -1.988534
v -1.927513 9.305958 -1.927513
v -1.866493 8.844393 -1.866493
v -1.805473 8.382827 -1.805473
v -1.744452 7.921261 -1.744452
v -1.683432 7.459696 -1.683432
v -1.622411 6.998130 -1.622411
v -1.561391 6.536565 -1.561391
v -1.500371 6.074999 -1.500371
v -1.439350 5.613434 -1.439350
v -1.378330 5.151868 -1.378330
v -1.317310 4.690303 -1.317310
v -1.256290 4.228737 -1.256290
v -1.195269 3.767172 -1.195269
v -1.134249 3.305606 -1.134249
v -1.073229 2.844041 -1.073229
v -1.012208 2.382475 -1.012208
v -0.951188 1.920910 -0.951188
v -0.890168 1.459345 -0.890168
v -0.829147 0.997779 -0.829147
v -0.768127 0.536214 -0.768127
v -1.492402 10.690656 -2.584915
v -1.449254 10.229090 -2.510181
v -1.406106 9.767524 -2.435447
v -1.362958 9.305958 -2.360712
v -1.319810 8.844393 -2.285978
v -1.276662 8.382827 -2.211243
v -1.233514 7.921261 -2.136509
v -1.190366 7.459696 -2.061775
v -1.147218 6.998130 -1.987040
v -1.104070 6.536565 -1.912306
v -1.060922 6.074999 -1.837572
v -1.017774 5.613434 -1.762837
v -0.974627 5.151868 -1.688103
v -0.931479 4.690303 -1.613369
v -0.888331 4.228737 -1.538634
v -0.845183 3.767172 -1.463900
v -0.802035 3.305606 -1.389166
v -0.758887 2.844041 -1.314431
v -0.715739 2.382475 -1.239697
v -0.672592 1.920910 -1.164963
v -0.629444 1.459345 -1.090228
v -0.586296 0.997779 -1.015494
v -0.543148 0.536214 -0.940760
v -0.772524 10.690656 -2.883099
v -0.750189 10.229090 -2.799743
v -0.727854 9.767524 -2.716388
v -0.705519 9.305958 -2.633032
v -0.683184 8.844393 -2.549677
v -0.660849 8.382827 -2.466321
v -0.638514 7.921261 -2.382966
v -0.616179 7.459696 -2.299611
v -0.593844 6.998130 -2.216255
v -0.571509 6.536565 -2.132900
v -0.549174 6.074999 -2.049545
v -0.526839 5.613434 -1.966190
v -0.504504 5.151868 -1.882834
v -0.482169 4.690303 -1.799479
v -0.459834 4.228737 -1.716124
v -0.437499 3.767172 -1.632768
v -0.415164 3.305606 -1.549413
v -0.392829 2.844041 -1.466058
v -0.370494 2.382475 -1.382702
v -0.348159 1.920910 -1.299347
v -0.325824 1.459345 -1.215992
v -0.303489 0.997779 -1.132636
v -0.281154 0.536214 -1.049281
vn -0.0000 0.1184 -0.9930
vn -0.0000 -0.5605 -0.8282
vn 0.2570 0.1184 -0.9591
vn 0.2143 -0.5605 -0.8000
vn 0.4965 0.1184 -0.8599
vn 0.4141 -0.5605 -0.7172
vn 0.7021 0.1184 -0.7021
vn 0.5856 -0.5605 -0.5856
vn 0.8599 0.1184 -0.4965
vn 0.7172 -0.5605 -0.4141
vn 0.9591 0.1184 -0.2570
vn 0.8000 -0.5605 -0.2144
vn 0.9930 0.1184 -0.0000
vn 0.8282 -0.5605 -0.0000
vn 0.9591 0.1184 0.2570
vn 0.8000 -0.5605 0.2144
vn 0.8599 0.1184 0.4965
vn 0.7172 -0.5605 0.4141
vn 0.7021 0.1184 0.7021
vn 0.5856 -0.5605 0.5856
vn 0.4965 0.1184 0.8599
vn 0.4141 -0.5605 0.7172
vn 0.2570 0.1184 0.9591
vn 0.2143 -0.5605 0.8000
vn -0.0000 0.1184 0.9930
vn -0.0000 -0.5605 0.8282
vn -0.2570 0.1184 0.9591
vn -0.2143 -0.5605 0.8000
vn -0.4965 0.1184 0.8599
vn -0.4141 -0.5605 0.7172
vn -0.7021 0.1184 0.7021
vn -0.5856 -0.5605 0.5856
vn -0.8599 0.1184 0.4965
vn -0.7172 -0.5605 0.4141
vn -0.9591 0.1184 0.2570
vn -0.8000 -0.5605 0.2143
vn -0.9930 0.1184 -0.0000
vn -0.8282 -0.5605 -0.0000
vn -0.9591 0.1184 -0.2570
vn -0.8000 -0.5605 -0.2144
vn -0.8599 0.1184 -0.4965
vn -0.7172 -0.5605 -0.4141
vn -0.7021 0.1184 -0.7021
vn -0.5856 -0.5605 -0.5856
vn -0.4965 0.1184 -0.8599
vn -0.4141 -0.5605 -0.7172
vn -0.2570 0.1184 -0.9591
vn -0.2143 -0.5605 -0.8000
vn -0.0000 -0.0335 -0.9994
vn -0.0000 -0.1838 -0.9830
vn -0.0000 -0.3862 -0.9224
vn 0.2387 -0.3862 -0.8910
vn 0.2544 -0.1838 -0.9495
vn 0.2587 -0.0335 -0.9654
vn 0.4612 -0.3862 -0.7989
vn 0.4915 -0.1838 -0.8513
vn 0.4997 -0.0335 -0.8655
vn 0.6523 -0.3862 -0.6523
vn 0.6951 -0.1838 -0.6951
vn 0.7067 -0.0335 -0.7067
vn 0.7989 -0.3862 -0.4612
vn 0.8513 -0.1838 -0.4915
vn 0.8655 -0.0335 -0.4997
vn 0.8910 -0.3862 -0.2387
vn 0.9495 -0.1838 -0.2544
vn 0.9654 -0.0335 -0.2587
vn 0.9224 -0.3862 -0.0000
vn 0.9830 -0.1838 -0.0000
vn 0.9994 -0.0335 -0.0000
vn 0.8910 -0.3862 0.2387
vn 0.9495 -0.1838 0.2544
vn 0.9654 -0.0335 0.2587
vn 0.7989 -0.3862 0.4612
vn 0.8513 -0.1838 0.4915
vn 0.8655 -0.0335 0.4997
vn 0.6523 -0.3862 0.6523
vn 0.6951 -0.1838 0.6951
vn 0.7067 -0.0335 0.7067
vn 0.4612 -0.3862 0.7989
vn 0.4915 -0.1838 0.8513
vn 0.4997 -0.0335 0.8655
vn 0.2387 -0.3862 0.8910
vn 0.2544 -0.1838 0.9495
vn 0.2587 -0.0335 0.9654
vn -0.0000 -0.3862 0.9224
vn -0.0000 -0.1838 0.9830
vn -0.0000 -0.0335 0.9994
vn -0.2387 -0.3862 0.8910
vn -0.2544 -0.1838 0.9495
vn -0.2587 -0.0335 0.9654
vn -0.4612 -0.3862 0.7989
vn -0.4915 -0.1838 0.8513
vn -0.4997 -0.0335 0.8655
vn -0.6523 -0.3862 0.6523
vn -0.6951 -0.1838 0.6951
vn -0.7067 -0.0335 0.7067
vn -0.7989 -0.3862 0.4612
vn -0.8513 -0.1838 0.4915
vn -0.8655 -0.0335 0.4997
vn -0.8910 -0.3862 0.2387
vn -0.9495 -0.1838 0.2544
vn -0.9654 -0.0335 0.2587
vn -0.9224 -0.3862 -0.0000
vn -0.9830 -0.1838 -0.0000
vn -0.9994 -0.0335 -0.0000
vn -0.8910 -0.3862 -0.2387
vn -0.9495 -0.1838 -0.2544
vn -0.9654 -0.0335 -0.2587
vn -0.7989 -0.3862 -0.4612
vn -0.8513 -0.1838 -0.4915
vn -0.8655 -0.0335 -0.4997
vn -0.6523 -0.3862 -0.6523
vn -0.6951 -0.1838 -0.6951
vn -0.7067 -0.0335 -0.7067
vn -0.4612 -0.3862 -0.7989
vn -0.4915 -0.1838 -0.8513
vn -0.4997 -0.0335 -0.8655
vn -0.2387 -0.3862 -0.8910
vn -0.2544 -0.1838 -0.9495
vn -0.2587 -0.0335 -0.9654
vt 1.000000 0.958333
vt 1.000000 1.000000
vt 0.958333 1.000000
vt 0.958333 0.958333
vt 0.916667 1.000000
vt 0.916667 0.958333
vt 0.875000 1.000000
vt 0.875000 0.958333
vt 0.833333 1.000000
vt 0.833333 0.958333
vt 0.791667 1.000000
vt 0.791667 0.958333
vt 0.750000 1.000000
vt 0.750000 0.958333
vt 0.708333 1.000000
vt 0.708333 0.958333
vt 0.666667 1.000000
vt 0.666667 0.958333
vt 0.625000 1.000000
vt 0.625000 0.958333
vt 0.583333 1.000000
vt 0.583333 0.958333
vt 0.541666 1.000000
vt 0.541666 0.958333
vt 0.500000 1.000000
vt 0.500000 0.958333
vt 0.458333 1.000000
vt 0.458333 0.958333
vt 0.416666 1.000000
vt 0.416666 0.958333
vt 0.375000 1.000000
vt 0.375000 0.958333
vt 0.333333 1.000000
vt 0.333333 0.958333
vt 0.291667 1.000000
vt 0.291666 0.958333
vt 0.250000 1.000000
vt 0.250000 0.958333
vt 0.208333 1.000000
vt 0.208333 0.958333
vt 0.166666 1.000000
vt 0.166666 0.958333
vt 0.125000 1.000000
vt 0.125000 0.958333
vt 0.083333 1.000000
vt 0.083333 0.958333
vt 0.041666 1.000000
vt 0.041666 0.958333
vt -0.000000 1.000000
vt -0.000000 0.958333
vt 0.041666 0.000000
vt 0.041666 0.041667
vt -0.000000 0.041667
vt -0.000000 0.000000
vt 0.041666 0.083333
vt -0.000000 0.083333
vt 0.041666 0.125000
vt -0.000000 0.125000
vt 0.041666 0.166667
vt -0.000000 0.166667
vt 0.041666 0.208333
vt -0.000000 0.208333
vt 0.041666 0.250000
vt -0.000000 0.250000
vt 0.041666 0.291667
vt -0.000000 0.291667
vt 0.041666 0.333333
vt -0.000000 0.333333
vt 0.041666 0.375000
vt -0.000000 0.375000
vt 0.041666 0.416667
vt -0.000000 0.416667
vt 0.041666 0.458333
vt -0.000000 0.458333
vt 0.041666 0.500000
vt -0.000000 0.500000
vt 0.041666 0.541667
vt -0.000000 0.541667
vt 0.041666 0.583333
vt -0.000000 0.583333
vt 0.041666 0.625000
vt -0.000000 0.625000
vt 0.041666 0.666667
vt -0.000000 0.666667
vt 0.041666 0.708333
vt -0.000000 0.708333
vt 0.041666 0.750000
vt -0.000000 0.750000
vt 0.041666 0.791667
vt -0.000000 0.791667
vt 0.041666 0.833333
vt -0.000000 0.833333
vt 0.041666 0.875000
vt -0.000000 0.875000
vt 0.041666 0.916667
vt -0.000000 0.916667
vt 0.083333 0.000000
vt 0.083333 0.041667
vt 0.083333 0.083333
vt 0.083333 0.125000
vt 0.083333 0.166667
vt 0.083333 0.208333
vt 0.083333 0.250000
vt 0.083333 0.291667
vt 0.083333 0.333333
vt 0.083333 0.375000
vt 0.083333 0.416667
vt 0.083333 0.458333
vt 0.083333 0.500000
vt 0.083333 0.541667
vt 0.083333 0.583333
vt 0.083333 0.625000
vt 0.083333 0.666667
vt 0.083333 0.708333
vt 0.083333 0.750000
vt 0.083333 0.791667
vt 0.083333 0.833333
vt 0.083333 0.875000
vt 0.083333 0.916667
vt 0.125000 0.000000
vt 0.125000 0.041667
vt 0.125000 0.083333
vt 0.125000 0.125000
vt 0.125000 0.166667
vt 0.125000 0.208333
vt 0.125000 0.250000
vt 0.125000 0.291667
vt 0.125000 0.333333
vt 0.125000 0.375000
vt 0.125000 0.416667
vt 0.125000 0.458333
vt 0.125000 0.500000
vt 0.125000 0.541667
vt 0.125000 0.583333
vt 0.125000 0.625000
vt 0.125000 0.666667
vt 0.125000 0.708333
vt 0.125000 0.750000
vt 0.125000 0.791667
vt 0.125000 0.833333
vt 0.125000 0.875000
vt 0.125000 0.916667
vt 0.166666 0.000000
vt 0.166666 0.041667
vt 0.166666 0.083333
vt 0.166666 0.125000
vt 0.166666 0.166667
vt 0.166667 0.208333
vt 0.166667 0.250000
vt 0.166667 0.291667
vt 0.166667 0.333333
vt 0.166667 0.375000
vt 0.166667 0.416667
vt 0.166667 0.458333
vt 0.166667 0.500000
vt 0.166667 0.541667
vt 0.166667 0.583333
vt 0.166667 0.625000
vt 0.166667 0.666667
vt 0.166667 0.708333
vt 0.166667 0.750000
vt 0.166667 0.791667
vt 0.166667 0.833333
vt 0.166666 0.875000
vt 0.166666 0.916667
vt 0.208333 0.000000
vt 0.208333 0.041667
vt 0.208333 0.083333
vt 0.208333 0.125000
vt 0.208333 0.166667
vt 0.208333 0.208333
vt 0.208333 0.250000
vt 0.208333 0.291667
vt 0.208333 0.333333
vt 0.208333 0.375000
vt 0.208333 0.416667
vt 0.208333 0.458333
vt 0.208333 0.500000
vt 0.208333 0.541667
vt 0.208333 0.583333
vt 0.208333 0.625000
vt 0.208333 0.666667
vt 0.208333 0.708333
vt 0.208333 0.750000
vt 0.208333 0.791667
vt 0.208333 0.833333
vt 0.208333 0.875000
vt 0.208333 0.916667
vt 0.250000 0.000000
vt 0.250000 0.041667
vt 0.250000 0.083333
vt 0.250000 0.125000
vt 0.250000 0.166667
vt 0.250000 0.208333
vt 0.250000 0.250000
vt 0.250000 0.291667
vt 0.250000 0.333333
vt 0.250000 0.375000
vt 0.250000 0.416667
vt 0.250000 0.458333
vt 0.250000 0.500000
vt 0.250000 0.541667
vt 0.250000 0.583333
vt 0.250000 0.625000
vt 0.250000 0.666667
vt 0.250000 0.708333
vt 0.250000 0.750000
vt 0.250000 0.791667
vt 0.250000 0.833333
vt 0.250000 0.875000
vt 0.250000 0.916667
vt 0.291667 0.000000
vt 0.291667 0.041667
vt 0.291667 0.083333
vt 0.291667 0.125000
vt 0.291667 0.166667
vt 0.291667 0.208333
vt 0.291667 0.250000
vt 0.291667 0.291667
vt 0.291667 0.333333
vt 0.291666 0.375000
vt 0.291667 0.416667
vt 0.291667 0.458333
vt 0.291667 0.500000
vt 0.291667 0.541667
vt 0.291667 0.583333
vt 0.291667 0.625000
vt 0.291667 0.666667
vt 0.291667 0.708333
vt 0.291667 0.750000
vt 0.291667 0.791667
vt 0.291667 0.833333
vt 0.291666 0.875000
vt 0.291667 0.916667
vt 0.333333 0.000000
vt 0.333333 0.041667
vt 0.333333 0.083333
vt 0.333333 0.125000
vt 0.333333 0.166667
vt 0.333333 0.208333
vt 0.333333 0.250000
vt 0.333333 0.291667
vt 0.333333 0.333333
vt 0.333333 0.375000
vt 0.333333 0.416667
vt 0.333333 0.458333
vt 0.333333 0.500000
vt 0.333333 0.541667
vt 0.333333 0.583333
vt 0.333333 0.625000
vt 0.333333 0.666667
vt 0.333333 0.708333
vt 0.333333 0.750000
vt 0.333333 0.791667
vt 0.333333 0.833333
vt 0.333333 0.875000
vt 0.333333 0.916667
vt 0.375000 0.000000
vt 0.375000 0.041667
vt 0.375000 0.083333
vt 0.375000 0.125000
vt 0.375000 0.166667
vt 0.375000 0.208333
vt 0.375000 0.250000
vt 0.375000 0.291667
vt 0.375000 0.333333
vt 0.375000 0.375000
vt 0.375000 0.416667
vt 0.375000 0.458333
vt 0.375000 0.500000
vt 0.375000 0.541667
vt 0.375000 0.583333
vt 0.375000 0.625000
vt 0.375000 0.666667
vt 0.375000 0.708333
vt 0.375000 0.750000
vt 0.375000 0.791667
vt 0.375000 0.833333
vt 0.375000 0.875000
vt 0.375000 0.916667
vt 0.416666 0.000000
vt 0.416666 0.041667
vt 0.416666 0.083333
vt 0.416667 0.125000
vt 0.416667 0.166667
vt 0.416667 0.208333
vt 0.416666 0.250000
vt 0.416666 0.291667
vt 0.416666 0.333333
vt 0.416666 0.375000
vt 0.416666 0.416667
vt 0.416666 0.458333
vt 0.416666 0.500000
vt 0.416666 0.541667
vt 0.416666 0.583333
vt 0.416666 0.625000
vt 0.416666 0.666667
vt 0.416666 0.708333
vt 0.416666 0.750000
vt 0.416666 0.791667
vt 0.416666 0.833333
vt 0.416666 0.875000
vt 0.416666 0.916667
vt 0.458333 0.000000
vt 0.458333 0.041667
vt 0.458333 0.083333
vt 0.458333 0.125000
vt 0.458333 0.166667
vt 0.458333 0.208333
vt 0.458333 0.250000
vt 0.458333 0.291667
vt 0.458333 0.333333
vt 0.458333 0.375000
vt 0.458333 0.416667
vt 0.458333 0.458333
vt 0.458333 0.500000
vt 0.458333 0.541667
vt 0.458333 0.583333
vt 0.458333 0.625000
vt 0.458333 0.666667
vt 0.458333 0.708333
vt 0.458333 0.750000
vt 0.458333 0.791667
vt 0.458333 0.833333
vt 0.458333 0.875000
vt 0.458333 0.916667
vt 0.500000 0.000000
vt 0.500000 0.041667
vt 0.500000 0.083333
vt 0.500000 0.125000
vt 0.500000 0.166667
vt 0.500000 0.208333
vt 0.500000 0.250000
vt 0.500000 0.291667
vt 0.500000 0.333333
vt 0.500000 0.375000
vt 0.500000 0.416667
vt 0.500000 0.458333
vt 0.500000 0.500000
vt 0.500000 0.541667
vt 0.500000 0.583333
vt 0.500000 0.625000
vt 0.500000 0.666667
vt 0.500000 0.708333
vt 0.500000 0.750000
vt 0.500000 0.791667
vt 0.500000 0.833333
vt 0.500000 0.875000
vt 0.500000 0.916667
vt 0.541666 0.000000
vt 0.541666 0.041667
vt 0.541666 0.083333
vt 0.541666 0.125000
vt 0.541666 0.166667
vt 0.541666 0.208333
vt 0.541666 0.250000
vt 0.541666 0.291667
vt 0.541666 0.333333
vt 0.541666 0.375000
vt 0.541666 0.416667
vt 0.541666 0.458333
vt 0.541666 0.500000
vt 0.541666 0.541667
vt 0.541667 0.583333
vt 0.541667 0.625000
vt 0.541667 0.666667
vt 0.541667 0.708333
vt 0.541667 0.750000
vt 0.541666 0.791667
vt 0.541666 0.833333
vt 0.541666 0.875000
vt 0.541666 0.916667
vt 0.583333 0.000000
vt 0.583333 0.041667
vt 0.583333 0.083333
vt 0.583333 0.125000
vt 0.583333 0.166667
vt 0.583333 0.208333
vt 0.583333 0.250000
vt 0.583333 0.291667
vt 0.583333 0.333333
vt 0.583333 0.375000
vt 0.583333 0.416667
vt 0.583333 0.458333
vt 0.583333 0.500000
vt 0.583333 0.541667
vt 0.583333 0.583333
vt 0.583333 0.625000
vt 0.583333 0.666667
vt 0.583333 0.708333
vt 0.583333 0.750000
vt 0.583333 0.791667
vt 0.583333 0.833333
vt 0.583333 0.875000
vt 0.583333 0.916667
vt 0.625000 0.000000
vt 0.625000 0.041667
vt 0.625000 0.083333
vt 0.625000 0.125000
vt 0.625000 0.166667
vt 0.625000 0.208333
vt 0.625000 0.250000
vt 0.625000 0.291667
vt 0.625000 0.333333
vt 0.625000 0.375000
vt 0.625000 0.416667
vt 0.625000 0.458333
vt 0.625000 0.500000
vt 0.625000 0.541667
vt 0.625000 0.583333
vt 0.625000 0.625000
vt 0.625000 0.666667
vt 0.625000 0.708333
vt 0.625000 0.750000
vt 0.625000 0.791667
vt 0.625000 0.833333
vt 0.625000 0.875000
vt 0.625000 0.916667
vt 0.666667 0.000000
vt 0.666667 0.041667
vt 0.666667 0.083333
vt 0.666667 0.125000
vt 0.666667 0.166667
vt 0.666667 0.208333
vt 0.666667 0.250000
vt 0.666667 0.291667
vt 0.666667 0.333333
vt 0.666667 0.375000
vt 0.666667 0.416667
vt 0.666667 0.458333
vt 0.666667 0.500000
vt 0.666667 0.541667
vt 0.666667 0.583333
vt 0.666667 0.625000
vt 0.666667 0.666667
vt 0.666666 0.708333
vt 0.666666 0.750000
vt 0.666666 0.791667
vt 0.666666 0.833333
vt 0.666666 0.875000
vt 0.666667 0.916667
vt 0.708333 0.000000
vt 0.708333 0.041667
vt 0.708333 0.083333
vt 0.708333 0.125000
vt 0.708333 0.166667
vt 0.708333 0.208333
vt 0.708333 0.250000
vt 0.708333 0.291667
vt 0.708333 0.333333
vt 0.708333 0.375000
vt 0.708333 0.416667
vt 0.708333 0.458333
vt 0.708333 0.500000
vt 0.708333 0.541667
vt 0.708333 0.583333
vt 0.708333 0.625000
vt 0.708333 0.666667
vt 0.708333 0.708333
vt 0.708333 0.750000
vt 0.708333 0.791667
vt 0.708333 0.833333
vt 0.708333 0.875000
vt 0.708333 0.916667
vt 0.750000 0.000000
vt 0.750000 0.041667
vt 0.750000 0.083333
vt 0.750000 0.125000
vt 0.750000 0.166667
vt 0.750000 0.208333
vt 0.750000 0.250000
vt 0.750000 0.291667
vt 0.750000 0.333333
vt 0.750000 0.375000
vt 0.750000 0.416667
vt 0.750000 0.458333
vt 0.750000 0.500000
vt 0.750000 0.541667
vt 0.750000 0.583333
vt 0.750000 0.625000
vt 0.750000 0.666667
vt 0.750000 0.708333
vt 0.750000 0.750000
vt 0.750000 0.791667
vt 0.750000 0.833333
vt 0.750000 0.875000
vt 0.750000 0.916667
vt 0.791667 0.000000
vt 0.791666 0.041667
vt 0.791666 0.083333
vt 0.791667 0.125000
vt 0.791667 0.166667
vt 0.791667 0.208333
vt 0.791667 0.250000
vt 0.791667 0.291667
vt 0.791667 0.333333
vt 0.791667 0.375000
vt 0.791667 0.416667
vt 0.791667 0.458333
vt 0.791667 0.500000
vt 0.791667 0.541667
vt 0.791667 0.583333
vt 0.791667 0.625000
vt 0.791667 0.666667
vt 0.791667 0.708333
vt 0.791667 0.750000
vt 0.791667 0.791667
vt 0.791667 0.833333
vt 0.791667 0.875000
vt 0.791667 0.916667
vt 0.833333 0.000000
vt 0.833333 0.041667
vt 0.833333 0.083333
vt 0.833333 0.125000
vt 0.833333 0.166667
vt 0.833333 0.208333
vt 0.833333 0.250000
vt 0.833333 0.291667
vt 0.833333 0.333333
vt 0.833333 0.375000
vt 0.833333 0.416667
vt 0.833333 0.458333
vt 0.833333 0.500000
vt 0.833333 0.541667
vt 0.833333 0.583333
vt 0.833333 0.625000
vt 0.833333 0.666667
vt 0.833333 0.708333
vt 0.833333 0.750000
vt 0.833333 0.791667
vt 0.833333 0.833333
vt 0.833333 0.875000
vt 0.833333 0.916667
vt 0.875000 0.000000
vt 0.875000 0.041667
vt 0.875000 0.083333
vt 0.875000 0.125000
vt 0.875000 0.166667
vt 0.875000 0.208333
vt 0.875000 0.250000
vt 0.875000 0.291667
vt 0.875000 0.333333
vt 0.875000 0.375000
vt 0.875000 0.416667
vt 0.875000 0.458333
vt 0.875000 0.500000
vt 0.875000 0.541667
vt 0.875000 0.583333
vt 0.875000 0.625000
vt 0.875000 0.666667
vt 0.875000 0.708333
vt 0.875000 0.750000
vt 0.875000 0.791667
vt 0.875000 0.833333
vt 0.875000 0.875000
vt 0.875000 0.916667
vt 0.916667 0.000000
vt 0.916667 0.041667
vt 0.916667 0.083333
vt 0.916667 0.125000
vt 0.916667 0.166667
vt 0.916667 0.208333
vt 0.916667 0.250000
vt 0.916667 0.291667
vt 0.916667 0.333333
vt 0.916667 0.375000
vt 0.916667 0.416667
vt 0.916667 0.458333
vt 0.916667 0.500000
vt 0.916667 0.541667
vt 0.916667 0.583333
vt 0.916667 0.625000
vt 0.916667 0.666667
vt 0.916666 0.708333
vt 0.916667 0.750000
vt 0.916667 0.791667
vt 0.916667 0.833333
vt 0.916667 0.875000
vt 0.916667 0.916667
vt 0.958333 0.000000
vt 0.958333 0.041667
vt 0.958333 0.083333
vt 0.958333 0.125000
vt 0.958333 0.166667
vt 0.958333 0.208333
vt 0.958333 0.250000
vt 0.958333 0.291667
vt 0.958333 0.333333
vt 0.958333 0.375000
vt 0.958333 0.416667
vt 0.958333 0.458333
vt 0.958333 0.500000
vt 0.958333 0.541667
vt 0.958333 0.583333
vt 0.958333 0.625000
vt 0.958333 0.666667
vt 0.958333 0.708333
vt 0.958333 0.750000
vt 0.958333 0.791667
vt 0.958333 0.833333
vt 0.958333 0.875000
vt 0.958333 0.916667
vt 1.000000 0.000000
vt 1.000000 0.041667
vt 1.000000 0.083333
vt 1.000000 0.125000
vt 1.000000 0.166667
vt 1.000000 0.208333
vt 1.000000 0.250000
vt 1.000000 0.291667
vt 1.000000 0.333333
vt 1.000000 0.375000
vt 1.000000 0.416667
vt 1.000000 0.458333
vt 1.000000 0.500000
vt 1.000000 0.541667
vt 1.000000 0.583333
vt 1.000000 0.625000
vt 1.000000 0.666667
vt 1.000000 0.708333
vt 1.000000 0.750000
vt 1.000000 0.791667
vt 1.000000 0.833333
vt 1.000000 0.875000
vt 1.000000 0.916667
s 1
f 71/1/51 2/2/2 4/3/4 72/4/52
f 72/4/52 4/3/4 6/5/6 95/6/55
f 95/6/55 6/5/6 8/7/8 118/8/58
f 118/8/58 8/7/8 10/9/10 141/10/61
f 141/10/61 10/9/10 12/11/12 164/12/64
f 164/12/64 12/11/12 14/13/14 187/14/67
f 187/14/67 14/13/14 16/15/16 210/16/70
f 210/16/70 16/15/16 18/17/18 233/18/73
f 233/18/73 18/17/18 20/19/20 256/20/76
f 256/20/76 20/19/20 22/21/22 279/22/79
f 279/22/79 22/21/22 24/23/24 302/24/82
f 302/24/82 24/23/24 26/25/26 325/26/85
f 325/26/85 26/25/26 28/27/28 348/28/88
f 348/28/88 28/27/28 30/29/30 371/30/91
f 371/30/91 30/29/30 32/31/32 394/32/94
f 394/32/94 32/31/32 34/33/34 417/34/97
f 417/34/97 34/33/34 36/35/36 440/36/100
f 440/36/100 36/35/36 38/37/38 463/38/103
f 463/38/103 38/37/38 40/39/40 486/40/106
f 486/40/106 40/39/40 42/41/42 509/42/109
f 509/42/109 42/41/42 44/43/44 532/44/112
f 532/44/112 44/43/44 46/45/46 555/46/115
f 555/46/115 46/45/46 48/47/48 578/48/118
f 578/48/118 48/47/48 2/49/2 71/50/51
f 47/51/47 600/52/120 49/53/49 1/54/1
f 600/52/120 599/55/119 50/56/50 49/53/49
f 599/55/119 598/57/119 51/58/50 50/56/50
f 598/57/119 597/59/119 52/60/50 51/58/50
f 597/59/119 596/61/119 53/62/50 52/60/50
f 596/61/119 595/63/119 54/64/50 53/62/50
f 595/63/119 594/65/119 55/66/50 54/64/50
f 594/65/119 593/67/119 56/68/50 55/66/50
f 593/67/119 592/69/119 57/70/50 56/68/50
f 592/69/119 591/71/119 58/72/50 57/70/50
f 591/71/119 590/73/119 59/74/50 58/72/50
f 590/73/119 589/75/119 60/76/50 59/74/50
f 589/75/119 588/77/119 61/78/50 60/76/50
f 588/77/119 587/79/119 62/80/50 61/78/50
f 587/79/119 586/81/119 63/82/50 62/80/50
f 586/81/119 585/83/119 64/84/50 63/82/50
f 585/83/119 584/85/119 65/86/50 64/84/50
f 584/85/119 583/87/119 66/88/50 65/86/50
f 583/87/119 582/89/119 67/90/50 66/88/50
f 582/89/119 581/91/119 68/92/50 67/90/50
f 581/91/119 580/93/119 69/94/50 68/92/50
f 580/93/119 579/95/119 70/96/50 69/94/50
f 579/95/119 578/48/118 71/50/51 70/96/50
f 45/97/45 577/98/117 600/52/120 47/51/47
f 577/98/117 576/99/116 599/55/119 600/52/120
f 576/99/116 575/100/116 598/57/119 599/55/119
f 575/100/116 574/101/116 597/59/119 598/57/119
f 574/101/116 573/102/116 596/61/119 597/59/119
f 573/102/116 572/103/116 595/63/119 596/61/119
f 572/103/116 571/104/116 594/65/119 595/63/119
f 571/104/116 570/105/116 593/67/119 594/65/119
f 570/105/116 569/106/116 592/69/119 593/67/119
f 569/106/116 568/107/116 591/71/119 592/69/119
f 568/107/116 567/108/116 590/73/119 591/71/119
f 567/108/116 566/109/116 589/75/119 590/73/119
f 566/109/116 565/110/116 588/77/119 589/75/119
f 565/110/116 564/111/116 587/79/119 588/77/119
f 564/111/116 563/112/116 586/81/119 587/79/119
f 563/112/116 562/113/116 585/83/119 586/81/119
f 562/113/116 561/114/116 584/85/119 585/83/119
f 561/114/116 560/115/116 583/87/119 584/85/119
f 560/115/116 559/116/116 582/89/119 583/87/119
f 559/116/116 558/117/116 581/91/119 582/89/119
f 558/117/116 557/118/116 580/93/119 581/91/119
f 557/118/116 556/119/116 579/95/119 580/93/119
f 556/119/116 555/46/115 578/48/118 579/95/119
f 43/120/43 554/121/114 577/98/117 45/97/45
f 554/121/114 553/122/113 576/99/116 577/98/117
f 553/122/113 552/123/113 575/100/116 576/99/116
f 552/123/113 551/124/113 574/101/116 575/100/116
f 551/124/113 550/125/113 573/102/116 574/101/116
f 550/125/113 549/126/113 572/103/116 573/102/116
f 549/126/113 548/127/113 571/104/116 572/103/116
f 548/127/113 547/128/113 570/105/116 571/104/116
f 547/128/113 546/129/113 569/106/116 570/105/116
f 546/129/113 545/130/113 568/107/116 569/106/116
f 545/130/113 544/131/113 567/108/116 568/107/116
f 544/131/113 543/132/113 566/109/116 567/108/116
f 543/132/113 542/133/113 565/110/116 566/109/116
f 542/133/113 541/134/113 564/111/116 565/110/116
f 541/134/113 540/135/113 563/112/116 564/111/116
f 540/135/113 539/136/113 562/113/116 563/112/116
f 539/136/113 538/137/113 561/114/116 562/113/116
f 538/137/113 537/138/113 560/115/116 561/114/116
f 537/138/113 536/139/113 559/116/116 560/115/116
f 536/139/113 535/140/113 558/117/116 559/116/116
f 535/140/113 534/141/113 557/118/116 558/117/116
f 534/141/113 533/142/113 556/119/116 557/118/116
f 533/142/113 532/44/112 555/46/115 556/119/116
f 41/143/41 531/144/111 554/121/114 43/120/43
f 531/144/111 530/145/110 553/122/113 554/121/114
f 530/145/110 529/146/110 552/123/113 553/122/113
f 529/146/110 528/147/110 551/124/113 552/123/113
f 528/147/110 527/148/110 550/125/113 551/124/113
f 527/148/110 526/149/110 549/126/113 550/125/113
f 526/149/110 525/150/110 548/127/113 549/126/113
f 525/150/110 524/151/110 547/128/113 548/127/113
f 524/151/110 523/152/110 546/129/113 547/128/113
f 523/152/110 522/153/110 545/130/113 546/129/113
f 522/153/110 521/154/110 544/131/113 545/130/113
f 521/154/110 520/155/110 543/132/113 544/131/113
f 520/155/110 519/156/110 542/133/113 543/132/113
f 519/156/110 518/157/110 541/134/113 542/133/113
f 518/157/110 517/158/110 540/135/113 541/134/113
f 517/158/110 516/159/110 539/136/113 540/135/113
f 516/159/110 515/160/110 538/137/113 539/136/113
f 515/160/110 514/161/110 537/138/113 538/137/113
f 514/161/110 513/162/110 536/139/113 537/138/113
f 513/162/110 512/163/110 535/140/113 536/139/113
f 512/163/110 511/164/110 534/141/113 535/140/113
f 511/164/110 510/165/110 533/142/113 534/141/113
f 510/165/110 509/42/109 532/44/112 533/142/113
f 39/166/39 508/167/108 531/144/111 41/143/41
f 508/167/108 507/168/107 530/145/110 531/144/111
f 507/168/107 506/169/107 529/146/110 530/145/110
f 506/169/107 505/170/107 528/147/110 529/146/110
f 505/170/107 504/171/107 527/148/110 528/147/110
f 504/171/107 503/172/107 526/149/110 527/148/110
f 503/172/107 502/173/107 525/150/110 526/149/110
f 502/173/107 501/174/107 524/151/110 525/150/110
f 501/174/107 500/175/107 523/152/110 524/151/110
f 500/175/107 499/176/107 522/153/110 523/152/110
f 499/176/107 498/177/107 521/154/110 522/153/110
f 498/177/107 497/178/107 520/155/110 521/154/110
f 497/178/107 496/179/107 519/156/110 520/155/110
f 496/179/107 495/180/107 518/157/110 519/156/110
f 495/180/107 494/181/107 517/158/110 518/157/110
f 494/181/107 493/182/107 516/159/110 517/158/110
f 493/182/107 492/183/107 515/160/110 516/159/110
f 492/183/107 491/184/107 514/161/110 515/160/110
f 491/184/107 490/185/107 513/162/110 514/161/110
f 490/185/107 489/186/107 512/163/110 513/162/110
f 489/186/107 488/187/107 511/164/110 512/163/110
f 488/187/107 487/188/107 510/165/110 511/164/110
f 487/188/107 486/40/106 509/42/109 510/165/110
f 37/189/37 485/190/105 508/167/108 39/166/39
f 485/190/105 484/191/104 507/168/107 508/167/108
f 484/191/104 483/192/104 506/169/107 507/168/107
f 483/192/104 482/193/104 505/170/107 506/169/107
f 482/193/104 481/194/104 504/171/107 505/170/107
f 481/194/104 480/195/104 503/172/107 504/171/107
f 480/195/104 479/196/104 502/173/107 503/172/107
f 479/196/104 478/197/104 501/174/107 502/173/107
f 478/197/104 477/198/104 500/175/107 501/174/107
f 477/198/104 476/199/104 499/176/107 500/175/107
f 476/199/104 475/200/104 498/177/107 499/176/107
f 475/200/104 474/201/104 497/178/107 498/177/107
f 474/201/104 473/202/104 496/179/107 497/178/107
f 473/202/104 472/203/104 495/180/107 496/179/107
f 472/203/104 471/204/104 494/181/107 495/180/107
f 471/204/104 470/205/104 493/182/107 494/181/107
f 470/205/104 469/206/104 492/183/107 493/182/107
f 469/206/104 468/207/104 491/184/107 492/183/107
f 468/207/104 467/208/104 490/185/107 491/184/107
f 467/208/104 466/209/104 489/186/107 490/185/107
f 466/209/104 465/210/104 488/187/107 489/186/107
f 465/210/104 464/211/104 487/188/107 488/187/107
f 464/211/104 463/38/103 486/40/106 487/188/107
f 35/212/35 462/213/102 485/190/105 37/189/37
f 462/213/102 461/214/101 484/191/104 485/190/105
f 461/214/101 460/215/101 483/192/104 484/191/104
f 460/215/101 459/216/101 482/193/104 483/192/104
f 459/216/101 458/217/101 481/194/104 482/193/104
f 458/217/101 457/218/101 480/195/104 481/194/104
f 457/218/101 456/219/101 479/196/104 480/195/104
f 456/219/101 455/220/101 478/197/104 479/196/104
f 455/220/101 454/221/101 477/198/104 478/197/104
f 454/221/101 453/222/101 476/199/104 477/198/104
f 453/222/101 452/223/101 475/200/104 476/199/104
f 452/223/101 451/224/101 474/201/104 475/200/104
f 451/224/101 450/225/101 473/202/104 474/201/104
f 450/225/101 449/226/101 472/203/104 473/202/104
f 449/226/101 448/227/101 471/204/104 472/203/104
f 448/227/101 447/228/101 470/205/104 471/204/104
f 447/228/101 446/229/101 469/206/104 470/205/104
f 446/229/101 445/230/101 468/207/104 469/206/104
f 445/230/101 444/231/101 467/208/104 468/207/104
f 444/231/101 443/232/101 466/209/104 467/208/104
f 443/232/101 442/233/101 465/210/104 466/209/104
f 442/233/101 441/234/101 464/211/104 465/210/104
f 441/234/101 440/36/100 463/38/103 464/211/104
f 33/235/33 439/236/99 462/213/102 35/212/35
f 439/236/99 438/237/98 461/214/101 462/213/102
f 438/237/98 437/238/98 460/215/101 461/214/101
f 437/238/98 436/239/98 459/216/101 460/215/101
f 436/239/98 435/240/98 458/217/101 459/216/101
f 435/240/98 434/241/98 457/218/101 458/217/101
f 434/241/98 433/242/98 456/219/101 457/218/101
f 433/242/98 432/243/98 455/220/101 456/219/101
f 432/243/98 431/244/98 454/221/101 455/220/101
f 431/244/98 430/245/98 453/222/101 454/221/101
f 430/245/98 429/246/98 452/223/101 453/222/101
f 429/246/98 428/247/98 451/224/101 452/223/101
f 428/247/98 427/248/98 450/225/101 451/224/101
f 427/248/98 426/249/98 449/226/101 450/225/101
f 426/249/98 425/250/98 448/227/101 449/226/101
f 425/250/98 424/251/98 447/228/101 448/227/101
f 424/251/98 423/252/98 446/229/101 447/228/101
f 423/252/98 422/253/98 445/230/101 446/229/101
f 422/253/98 421/254/98 444/231/101 445/230/101
f 421/254/98 420/255/98 443/232/101 444/231/101
f 420/255/98 419/256/98 442/233/101 443/232/101
f 419/256/98 418/257/98 441/234/101 442/233/101
f 418/257/98 417/34/97 440/36/100 441/234/101
f 31/258/31 416/259/96 439/236/99 33/235/33
f 416/259/96 415/260/95 438/237/98 439/236/99
f 415/260/95 414/261/95 437/238/98 438/237/98
f 414/261/95 413/262/95 436/239/98 437/238/98
f 413/262/95 412/263/95 435/240/98 436/239/98
f 412/263/95 411/264/95 434/241/98 435/240/98
f 411/264/95 410/265/95 433/242/98 434/241/98
f 410/265/95 409/266/95 432/243/98 433/242/98
f 409/266/95 408/267/95 431/244/98 432/243/98
f 408/267/95 407/268/95 430/245/98 431/244/98
f 407/268/95 406/269/95 429/246/98 430/245/98
f 406/269/95 405/270/95 428/247/98 429/246/98
f 405/270/95 404/271/95 427/248/98 428/247/98
f 404/271/95 403/272/95 426/249/98 427/248/98
f 403/272/95 402/273/95 425/250/98 426/249/98
f 402/273/95 401/274/95 424/251/98 425/250/98
f 401/274/95 400/275/95 423/252/98 424/251/98
f 400/275/95 399/276/95 422/253/98 423/252/98
f 399/276/95 398/277/95 421/254/98 422/253/98
f 398/277/95 397/278/95 420/255/98 421/254/98
f 397/278/95 396/279/95 419/256/98 420/255/98
f 396/279/95 395/280/95 418/257/98 419/256/98
f 395/280/95 394/32/94 417/34/97 418/257/98
f 29/281/29 393/282/93 416/259/96 31/258/31
f 393/282/93 392/283/92 415/260/95 416/259/96
f 392/283/92 391/284/92 414/261/95 415/260/95
f 391/284/92 390/285/92 413/262/95 414/261/95
f 390/285/92 389/286/92 412/263/95 413/262/95
f 389/286/92 388/287/92 411/264/95 412/263/95
f 388/287/92 387/288/92 410/265/95 411/264/95
f 387/288/92 386/289/92 409/266/95 410/265/95
f 386/289/92 385/290/92 408/267/95 409/266/95
f 385/290/92 384/291/92 407/268/95 408/267/95
f 384/291/92 383/292/92 406/269/95 407/268/95
f 383/292/92 382/293/92 405/270/95 406/269/95
f 382/293/92 381/294/92 404/271/95 405/270/95
f 381/294/92 380/295/92 403/272/95 404/271/95
f 380/295/92 379/296/92 402/273/95 403/272/95
f 379/296/92 378/297/92 401/274/95 402/273/95
f 378/297/92 377/298/92 400/275/95 401/274/95
f 377/298/92 376/299/92 399/276/95 400/275/95
f 376/299/92 375/300/92 398/277/95 399/276/95
f 375/300/92 374/301/92 397/278/95 398/277/95
f 374/301/92 373/302/92 396/279/95 397/278/95
f 373/302/92 372/303/92 395/280/95 396/279/95
f 372/303/92 371/30/91 394/32/94 395/280/95
f 27/304/27 370/305/90 393/282/93 29/281/29
f 370/305/90 369/306/89 392/283/92 393/282/93
f 369/306/89 368/307/89 391/284/92 392/283/92
f 368/307/89 367/308/89 390/285/92 391/284/92
f 367/308/89 366/309/89 389/286/92 390/285/92
f 366/309/89 365/310/89 388/287/92 389/286/92
f 365/310/89 364/311/89 387/288/92 388/287/92
f 364/311/89 363/312/89 386/289/92 387/288/92
f 363/312/89 362/313/89 385/290/92 386/289/92
f 362/313/89 361/314/89 384/291/92 385/290/92
f 361/314/89 360/315/89 383/292/92 384/291/92
f 360/315/89 359/316/89 382/293/92 383/292/92
f 359/316/89 358/317/89 381/294/92 382/293/92
f 358/317/89 357/318/89 380/295/92 381/294/92
f 357/318/89 356/319/89 379/296/92 380/295/92
f 356/319/89 355/320/89 378/297/92 379/296/92
f 355/320/89 354/321/89 377/298/92 378/297/92
f 354/321/89 353/322/89 376/299/92 377/298/92
f 353/322/89 352/323/89 375/300/92 376/299/92
f 352/323/89 351/324/89 374/301/92 375/300/92
f 351/324/89 350/325/89 373/302/92 374/301/92
f 350/325/89 349/326/89 372/303/92 373/302/92
f 349/326/89 348/28/88 371/30/91 372/303/92
f 25/327/25 347/328/87 370/305/90 27/304/27
f 347/328/87 346/329/86 369/306/89 370/305/90
f 346/329/86 345/330/86 368/307/89 369/306/89
f 345/330/86 344/331/86 367/308/89 368/307/89
f 344/331/86 343/332/86 366/309/89 367/308/89
f 343/332/86 342/333/86 365/310/89 366/309/89
f 342/333/86 341/334/86 364/311/89 365/310/89
f 341/334/86 340/335/86 363/312/89 364/311/89
f 340/335/86 339/336/86 362/313/89 363/312/89
f 339/336/86 338/337/86 361/314/89 362/313/89
f 338/337/86 337/338/86 360/315/89 361/314/89
f 337/338/86 336/339/86 359/316/89 360/315/89
f 336/339/86 335/340/86 358/317/89 359/316/89
f 335/340/86 334/341/86 357/318/89 358/317/89
f 334/341/86 333/342/86 356/319/89 357/318/89
f 333/342/86 332/343/86 355/320/89 356/319/89
f 332/343/86 331/344/86 354/321/89 355/320/89
f 331/344/86 330/345/86 353/322/89 354/321/89
f 330/345/86 329/346/86 352/323/89 353/322/89
f 329/346/86 328/347/86 351/324/89 352/323/89
f 328/347/86 327/348/86 350/325/89 351/324/89
f 327/348/86 326/349/86 349/326/89 350/325/89
f 326/349/86 325/26/85 348/28/88 349/326/89
f 23/350/23 324/351/84 347/328/87 25/327/25
f 324/351/84 323/352/83 346/329/86 347/328/87
f 323/352/83 322/353/83 345/330/86 346/329/86
f 322/353/83 321/354/83 344/331/86 345/330/86
f 321/354/83 320/355/83 343/332/86 344/331/86
f 320/355/83 319/356/83 342/333/86 343/332/86
f 319/356/83 318/357/83 341/334/86 342/333/86
f 318/357/83 317/358/83 340/335/86 341/334/86
f 317/358/83 316/359/83 339/336/86 340/335/86
f 316/359/83 315/360/83 338/337/86 339/336/86
f 315/360/83 314/361/83 337/338/86 338/337/86
f 314/361/83 313/362/83 336/339/86 337/338/86
f 313/362/83 312/363/83 335/340/86 336/339/86
f 312/363/83 311/364/83 334/341/86 335/340/86
f 311/364/83 310/365/83 333/342/86 334/341/86
f 310/365/83 309/366/83 332/343/86 333/342/86
f 309/366/83 308/367/83 331/344/86 332/343/86
f 308/367/83 307/368/83 330/345/86 331/344/86
f 307/368/83 306/369/83 329/346/86 330/345/86
f 306/369/83 305/370/83 328/347/86 329/346/86
f 305/370/83 304/371/83 327/348/86 328/347/86
f 304/371/83 303/372/83 326/349/86 327/348/86
f 303/372/83 302/24/82 325/26/85 326/349/86
f 21/373/21 301/374/81 324/351/84 23/350/23
f 301/374/81 300/375/80 323/352/83 324/351/84
f 300/375/80 299/376/80 322/353/83 323/352/83
f 299/376/80 298/377/80 321/354/83 322/353/83
f 298/377/80 297/378/80 320/355/83 321/354/83
f 297/378/80 296/379/80 319/356/83 320/355/83
f 296/379/80 295/380/80 318/357/83 319/356/83
f 295/380/80 294/381/80 317/358/83 318/357/83
f 294/381/80 293/382/80 316/359/83 317/358/83
f 293/382/80 292/383/80 315/360/83 316/359/83
f 292/383/80 291/384/80 314/361/83 315/360/83
f 291/384/80 290/385/80 313/362/83 314/361/83
f 290/385/80 289/386/80 312/363/83 313/362/83
f 289/386/80 288/387/80 311/364/83 312/363/83
f 288/387/80 287/388/80 310/365/83 311/364/83
f 287/388/80 286/389/80 309/366/83 310/365/83
f 286/389/80 285/390/80 308/367/83 309/366/83
f 285/390/80 284/391/80 307/368/83 308/367/83
f 284/391/80 283/392/80 306/369/83 307/368/83
f 283/392/80 282/393/80 305/370/83 306/369/83
f 282/393/80 281/394/80 304/371/83 305/370/83
f 281/394/80 280/395/80 303/372/83 304/371/83
f 280/395/80 279/22/79 302/24/82 303/372/83
f 19/396/19 278/397/78 301/374/81 21/373/21
f 278/397/78 277/398/77 300/375/80 301/374/81
f 277/398/77 276/399/77 299/376/80 300/375/80
f 276/399/77 275/400/77 298/377/80 299/376/80
f 275/400/77 274/401/77 297/378/80 298/377/80
f 274/401/77 273/402/77 296/379/80 297/378/80
f 273/402/77 272/403/77 295/380/80 296/379/80
f 272/403/77 271/404/77 294/381/80 295/380/80
f 271/404/77 270/405/77 293/382/80 294/381/80
f 270/405/77 269/406/77 292/383/80 293/382/80
f 269/406/77 268/407/77 291/384/80 292/383/80
f 268/407/77 267/408/77 290/385/80 291/384/80
f 267/408/77 266/409/77 289/386/80 290/385/80
f 266/409/77 265/410/77 288/387/80 289/386/80
f 265/410/77 264/411/77 287/388/80 288/387/80
f 264/411/77 263/412/77 286/389/80 287/388/80
f 263/412/77 262/413/77 285/390/80 286/389/80
f 262/413/77 261/414/77 284/391/80 285/390/80
f 261/414/77 260/415/77 283/392/80 284/391/80
f 260/415/77 259/416/77 282/393/80 283/392/80
f 259/416/77 258/417/77 281/394/80 282/393/80
f 258/417/77 257/418/77 280/395/80 281/394/80
f 257/418/77 256/20/76 279/22/79 280/395/80
f 17/419/17 255/420/75 278/397/78 19/396/19
f 255/420/75 254/421/74 277/398/77 278/397/78
f 254/421/74 253/422/74 276/399/77 277/398/77
f 253/422/74 252/423/74 275/400/77 276/399/77
f 252/423/74 251/424/74 274/401/77 275/400/77
f 251/424/74 250/425/74 273/402/77 274/401/77
f 250/425/74 249/426/74 272/403/77 273/402/77
f 249/426/74 248/427/74 271/404/77 272/403/77
f 248/427/74 247/428/74 270/405/77 271/404/77
f 247/428/74 246/429/74 269/406/77 270/405/77
f 246/429/74 245/430/74 268/407/77 269/406/77
f 245/430/74 244/431/74 267/408/77 268/407/77
f 244/431/74 243/432/74 266/409/77 267/408/77
f 243/432/74 242/433/74 265/410/77 266/409/77
f 242/433/74 241/434/74 264/411/77 265/410/77
f 241/434/74 240/435/74 263/412/77 264/411/77
f 240/435/74 239/436/74 262/413/77 263/412/77
f 239/436/74 238/437/74 261/414/77 262/413/77
f 238/437/74 237/438/74 260/415/77 261/414/77
f 237/438/74 236/439/74 259/416/77 260/415/77
f 236/439/74 235/440/74 258/417/77 259/416/77
f 235/440/74 234/441/74 257/418/77 258/417/77
f 234/441/74 233/18/73 256/20/76 257/418/77
f 15/442/15 232/443/72 255/420/75 17/419/17
f 232/443/72 231/444/71 254/421/74 255/420/75
f 231/444/71 230/445/71 253/422/74 254/421/74
f 230/445/71 229/446/71 252/423/74 253/422/74
f 229/446/71 228/447/71 251/424/74 252/423/74
f 228/447/71 227/448/71 250/425/74 251/424/74
f 227/448/71 226/449/71 249/426/74 250/425/74
f 226/449/71 225/450/71 248/427/74 249/426/74
f 225/450/71 224/451/71 247/428/74 248/427/74
f 224/451/71 223/452/71 246/429/74 247/428/74
f 223/452/71 222/453/71 245/430/74 246/429/74
f 222/453/71 221/454/71 244/431/74 245/430/74
f 221/454/71 220/455/71 243/432/74 244/431/74
f 220/455/71 219/456/71 242/433/74 243/432/74
f 219/456/71 218/457/71 241/434/74 242/433/74
f 218/457/71 217/458/71 240/435/74 241/434/74
f 217/458/71 216/459/71 239/436/74 240/435/74
f 216/459/71 215/460/71 238/437/74 239/436/74
f 215/460/71 214/461/71 237/438/74 238/437/74
f 214/461/71 213/462/71 236/439/74 237/438/74
f 213/462/71 212/463/71 235/440/74 236/439/74
f 212/463/71 211/464/71 234/441/74 235/440/74
f 211/464/71 210/16/70 233/18/73 234/441/74
f 13/465/13 209/466/69 232/443/72 15/442/15
f 209/466/69 208/467/68 231/444/71 232/443/72
f 208/467/68 207/468/68 230/445/71 231/444/71
f 207/468/68 206/469/68 229/446/71 230/445/71
f 206/469/68 205/470/68 228/447/71 229/446/71
f 205/470/68 204/471/68 227/448/71 228/447/71
f 204/471/68 203/472/68 226/449/71 227/448/71
f 203/472/68 202/473/68 225/450/71 226/449/71
f 202/473/68 201/474/68 224/451/71 225/450/71
f 201/474/68 200/475/68 223/452/71 224/451/71
f 200/475/68 199/476/68 222/453/71 223/452/71
f 199/476/68 198/477/68 221/454/71 222/453/71
f 198/477/68 197/478/68 220/455/71 221/454/71
f 197/478/68 196/479/68 219/456/71 220/455/71
f 196/479/68 195/480/68 218/457/71 219/456/71
f 195/480/68 194/481/68 217/458/71 218/457/71
f 194/481/68 193/482/68 216/459/71 217/458/71
f 193/482/68 192/483/68 215/460/71 216/459/71
f 192/483/68 191/484/68 214/461/71 215/460/71
f 191/484/68 190/485/68 213/462/71 214/461/71
f 190/485/68 189/486/68 212/463/71 213/462/71
f 189/486/68 188/487/68 211/464/71 212/463/71
f 188/487/68 187/14/67 210/16/70 211/464/71
f 11/488/11 186/489/66 209/466/69 13/465/13
f 186/489/66 185/490/65 208/467/68 209/466/69
f 185/490/65 184/491/65 207/468/68 208/467/68
f 184/491/65 183/492/65 206/469/68 207/468/68
f 183/492/65 182/493/65 205/470/68 206/469/68
f 182/493/65 181/494/65 204/471/68 205/470/68
f 181/494/65 180/495/65 203/472/68 204/471/68
f 180/495/65 179/496/65 202/473/68 203/472/68
f 179/496/65 178/497/65 201/474/68 202/473/68
f 178/497/65 177/498/65 200/475/68 201/474/68
f 177/498/65 176/499/65 199/476/68 200/475/68
f 176/499/65 175/500/65 198/477/68 199/476/68
f 175/500/65 174/501/65 197/478/68 198/477/68
f 174/501/65 173/502/65 196/479/68 197/478/68
f 173/502/65 172/503/65 195/480/68 196/479/68
f 172/503/65 171/504/65 194/481/68 195/480/68
f 171/504/65 170/505/65 193/482/68 194/481/68
f 170/505/65 169/506/65 192/483/68 193/482/68
f 169/506/65 168/507/65 191/484/68 192/483/68
f 168/507/65 167/508/65 190/485/68 191/484/68
f 167/508/65 166/509/65 189/486/68 190/485/68
f 166/509/65 165/510/65 188/487/68 189/486/68
f 165/510/65 164/12/64 187/14/67 188/487/68
f 9/511/9 163/512/63 186/489/66 11/488/11
f 163/512/63 162/513/62 185/490/65 186/489/66
f 162/513/62 161/514/62 184/491/65 185/490/65
f 161/514/62 160/515/62 183/492/65 184/491/65
f 160/515/62 159/516/62 182/493/65 183/492/65
f 159/516/62 158/517/62 181/494/65 182/493/65
f 158/517/62 157/518/62 180/495/65 181/494/65
f 157/518/62 156/519/62 179/496/65 180/495/65
f 156/519/62 155/520/62 178/497/65 179/496/65
f 155/520/62 154/521/62 177/498/65 178/497/65
f 154/521/62 153/522/62 176/499/65 177/498/65
f 153/522/62 152/523/62 175/500/65 176/499/65
f 152/523/62 151/524/62 174/501/65 175/500/65
f 151/524/62 150/525/62 173/502/65 174/501/65
f 150/525/62 149/526/62 172/503/65 173/502/65
f 149/526/62 148/527/62 171/504/65 172/503/65
f 148/527/62 147/528/62 170/505/65 171/504/65
f 147/528/62 146/529/62 169/506/65 170/505/65
f 146/529/62 145/530/62 168/507/65 169/506/65
f 145/530/62 144/531/62 167/508/65 168/507/65
f 144/531/62 143/532/62 166/509/65 167/508/65
f 143/532/62 142/533/62 165/510/65 166/509/65
f 142/533/62 141/10/61 164/12/64 165/510/65
f 7/534/7 140/535/60 163/512/63 9/511/9
f 140/535/60 139/536/59 162/513/62 163/512/63
f 139/536/59 138/537/59 161/514/62 162/513/62
f 138/537/59 137/538/59 160/515/62 161/514/62
f 137/538/59 136/539/59 159/516/62 160/515/62
f 136/539/59 135/540/59 158/517/62 159/516/62
f 135/540/59 134/541/59 157/518/62 158/517/62
f 134/541/59 133/542/59 156/519/62 157/518/62
f 133/542/59 132/543/59 155/520/62 156/519/62
f 132/543/59 131/544/59 154/521/62 155/520/62
f 131/544/59 130/545/59 153/522/62 154/521/62
f 130/545/59 129/546/59 152/523/62 153/522/62
f 129/546/59 128/547/59 151/524/62 152/523/62
f 128/547/59 127/548/59 150/525/62 151/524/62
f 127/548/59 126/549/59 149/526/62 150/525/62
f 126/549/59 125/550/59 148/527/62 149/526/62
f 125/550/59 124/551/59 147/528/62 148/527/62
f 124/551/59 123/552/59 146/529/62 147/528/62
f 123/552/59 122/553/59 145/530/62 146/529/62
f 122/553/59 121/554/59 144/531/62 145/530/62
f 121/554/59 120/555/59 143/532/62 144/531/62
f 120/555/59 119/556/59 142/533/62 143/532/62
f 119/556/59 118/8/58 141/10/61 142/533/62
f 5/557/5 117/558/57 140/535/60 7/534/7
f 117/558/57 116/559/56 139/536/59 140/535/60
f 116/559/56 115/560/56 138/537/59 139/536/59
f 115/560/56 114/561/56 137/538/59 138/537/59
f 114/561/56 113/562/56 136/539/59 137/538/59
f 113/562/56 112/563/56 135/540/59 136/539/59
f 112/563/56 111/564/56 134/541/59 135/540/59
f 111/564/56 110/565/56 133/542/59 134/541/59
f 110/565/56 109/566/56 132/543/59 133/542/59
f 109/566/56 108/567/56 131/544/59 132/543/59
f 108/567/56 107/568/56 130/545/59 131/544/59
f 107/568/56 106/569/56 129/546/59 130/545/59
f 106/569/56 105/570/56 128/547/59 129/546/59
f 105/570/56 104/571/56 127/548/59 128/547/59
f 104/571/56 103/572/56 126/549/59 127/548/59
f 103/572/56 102/573/56 125/550/59 126/549/59
f 102/573/56 101/574/56 124/551/59 125/550/59
f 101/574/56 100/575/56 123/552/59 124/551/59
f 100/575/56 99/576/56 122/553/59 123/552/59
f 99/576/56 98/577/56 121/554/59 122/553/59
f 98/577/56 97/578/56 120/555/59 121/554/59
f 97/578/56 96/579/56 119/556/59 120/555/59
f 96/579/56 95/6/55 118/8/58 119/556/59
f 3/580/3 94/581/54 117/558/57 5/557/5
f 94/581/54 93/582/53 116/559/56 117/558/57
f 93/582/53 92/583/53 115/560/56 116/559/56
f 92/583/53 91/584/53 114/561/56 115/560/56
f 91/584/53 90/585/53 113/562/56 114/561/56
f 90/585/53 89/586/53 112/563/56 113/562/56
f 89/586/53 88/587/53 111/564/56 112/563/56
f 88/587/53 87/588/53 110/565/56 111/564/56
f 87/588/53 86/589/53 109/566/56 110/565/56
f 86/589/53 85/590/53 108/567/56 109/566/56
f 85/590/53 84/591/53 107/568/56 108/567/56
f 84/591/53 83/592/53 106/569/56 107/568/56
f 83/592/53 82/593/53 105/570/56 106/569/56
f 82/593/53 81/594/53 104/571/56 105/570/56
f 81/594/53 80/595/53 103/572/56 104/571/56
f 80/595/53 79/596/53 102/573/56 103/572/56
f 79/596/53 78/597/53 101/574/56 102/573/56
f 78/597/53 77/598/53 100/575/56 101/574/56
f 77/598/53 76/599/53 99/576/56 100/575/56
f 76/599/53 75/600/53 98/577/56 99/576/56
f 75/600/53 74/601/53 97/578/56 98/577/56
f 74/601/53 73/602/53 96/579/56 97/578/56
f 73/602/53 72/4/52 95/6/55 96/579/56
f 1/603/1 49/604/49 94/581/54 3/580/3
f 49/604/49 50/605/50 93/582/53 94/581/54
f 50/605/50 51/606/50 92/583/53 93/582/53
f 51/606/50 52/607/50 91/584/53 92/583/53
f 52/607/50 53/608/50 90/585/53 91/584/53
f 53/608/50 54/609/50 89/586/53 90/585/53
f 54/609/50 55/610/50 88/587/53 89/586/53
f 55/610/50 56/611/50 87/588/53 88/587/53
f 56/611/50 57/612/50 86/589/53 87/588/53
f 57/612/50 58/613/50 85/590/53 86/589/53
f 58/613/50 59/614/50 84/591/53 85/590/53
f 59/614/50 60/615/50 83/592/53 84/591/53
f 60/615/50 61/616/50 82/593/53 83/592/53
f 61/616/50 62/617/50 81/594/53 82/593/53
f 62/617/50 63/618/50 80/595/53 81/594/53
f 63/618/50 64/619/50 79/596/53 80/595/53
f 64/619/50 65/620/50 78/597/53 79/596/53
f 65/620/50 66/621/50 77/598/53 78/597/53
f 66/621/50 67/622/50 76/599/53 77/598/53
f 67/622/50 68/623/50 75/600/53 76/599/53
f 68/623/50 69/624/50 74/601/53 75/600/53
f 69/624/50 70/625/50 73/602/53 74/601/53
f 70/625/50 71/1/51 72/4/52 73/602/53
